<svg width="1584" height="396" viewBox="0 0 1584 396" fill="none" xmlns="http://www.w3.org/2000/svg">
<rect width="1584" height="396" fill="#F5F5F5"/>
<g id="Awesome banner" clip-path="url(#clip0_0_1)">
<rect width="1584" height="396" fill="url(#paint0_linear_0_1)"/>
<ellipse id="Ellipse 2" cx="323" cy="64" rx="285" ry="288" fill="url(#paint1_linear_0_1)" fill-opacity="0.1"/>
<g id="copyright">
<path d="M75.95 334.52L72.30 334.52L72.30 311.16L77.20 311.16L83.70 330.04Q83.60 329.02 83.50 327.62Q83.41 326.23 83.33 324.79Q83.25 323.35 83.25 322.23L83.25 311.16L86.90 311.16L86.90 334.52L82 334.52L75.57 315.64Q75.63 316.57 75.73 317.88Q75.82 319.19 75.89 320.57Q75.95 321.94 75.95 323.10L75.95 334.52M98.80 334.84Q96.46 334.84 94.67 333.96Q92.88 333.08 91.89 331.53Q90.90 329.98 90.90 327.93Q90.90 325.78 92.13 324.18Q93.36 322.58 95.34 322.17L95.34 322.10Q93.65 321.75 92.61 320.38Q91.57 319 91.57 317.11Q91.57 315.26 92.48 313.85Q93.39 312.44 95.02 311.64Q96.66 310.84 98.80 310.84Q100.94 310.84 102.59 311.64Q104.24 312.44 105.15 313.85Q106.06 315.26 106.06 317.11Q106.06 319 105.01 320.38Q103.95 321.75 102.26 322.10L102.26 322.17Q104.24 322.58 105.47 324.18Q106.70 325.78 106.70 327.93Q106.70 329.98 105.71 331.53Q104.72 333.08 102.93 333.96Q101.14 334.84 98.80 334.84M98.80 320.73Q100.30 320.73 101.23 319.82Q102.16 318.90 102.16 317.46Q102.16 315.99 101.23 315.08Q100.30 314.17 98.80 314.17Q97.30 314.17 96.37 315.08Q95.44 315.99 95.44 317.46Q95.44 318.90 96.37 319.82Q97.30 320.73 98.80 320.73M98.80 331.45Q100.56 331.45 101.68 330.42Q102.80 329.40 102.80 327.74Q102.80 326.04 101.68 325Q100.56 323.96 98.80 323.96Q97.04 323.96 95.92 325Q94.80 326.04 94.80 327.74Q94.80 329.40 95.92 330.42Q97.04 331.45 98.80 331.45M114.35 334.52L110.70 334.52L110.70 311.16L115.60 311.16L122.10 330.04Q122 329.02 121.90 327.62Q121.81 326.23 121.73 324.79Q121.65 323.35 121.65 322.23L121.65 311.16L125.30 311.16L125.30 334.52L120.40 334.52L113.97 315.64Q114.03 316.57 114.13 317.88Q114.22 319.19 114.29 320.57Q114.35 321.94 114.35 323.10" fill="white" fill-opacity="0.9"/>
<path d="M161.48 325.24L151.24 325.24L151.24 322.68L161.48 322.68" fill="white" fill-opacity="0.9"/>
<path d="M195.02 334.84Q191.82 334.84 189.96 333.05Q188.11 331.26 188.11 328.12L188.11 317.56Q188.11 314.42 189.96 312.63Q191.82 310.84 195.02 310.84Q198.15 310.84 200.01 312.65Q201.87 314.46 201.87 317.56L198.99 317.56Q198.99 315.58 197.95 314.50Q196.91 313.43 195.02 313.43Q193.13 313.43 192.06 314.50Q190.99 315.58 190.99 317.56L190.99 328.12Q190.99 330.10 192.06 331.18Q193.13 332.25 195.02 332.25Q196.91 332.25 197.95 331.18Q198.99 330.10 198.99 328.12L201.87 328.12Q201.87 331.22 200.01 333.03Q198.15 334.84 195.02 334.84" fill="white" fill-opacity="0.9"/>
<path d="M213.96 334.84Q210.83 334.84 209 333.02Q207.18 331.19 207.18 327.80L207.18 317.88Q207.18 314.49 209 312.66Q210.83 310.84 213.96 310.84Q217.10 310.84 218.92 312.66Q220.75 314.49 220.75 317.85L220.75 327.80Q220.75 331.19 218.92 333.02Q217.10 334.84 213.96 334.84M213.96 332.25Q215.85 332.25 216.86 331.18Q217.87 330.10 217.87 328.12L217.87 317.56Q217.87 315.58 216.86 314.50Q215.85 313.43 213.96 313.43Q212.11 313.43 211.08 314.50Q210.06 315.58 210.06 317.56L210.06 328.12Q210.06 330.10 211.08 331.18Q212.11 332.25 213.96 332.25" fill="white" fill-opacity="0.9"/>
<path d="M228.65 334.52L225.87 334.52L225.87 311.16L230.12 311.16L233.10 321.27L236.20 311.16L240.46 311.16L240.46 334.52L237.67 334.52L237.67 323.48Q237.67 321.91 237.72 319.88Q237.77 317.85 237.87 315.77Q237.96 313.69 238.09 312.02L234.31 324.09L231.82 324.09L228.20 312.31Q228.46 314.68 228.55 317.50Q228.65 320.31 228.65 323.48" fill="white" fill-opacity="0.9"/>
<path d="M247.85 334.52L245.07 334.52L245.07 311.16L249.32 311.16L252.30 321.27L255.40 311.16L259.66 311.16L259.66 334.52L256.87 334.52L256.87 323.48Q256.87 321.91 256.92 319.88Q256.97 317.85 257.07 315.77Q257.16 313.69 257.29 312.02L253.51 324.09L251.02 324.09L247.40 312.31Q247.66 314.68 247.75 317.50Q247.85 320.31 247.85 323.48" fill="white" fill-opacity="0.9"/>
<path d="M271.56 334.84Q268.30 334.84 266.57 333.03Q264.84 331.22 264.84 328.12L264.84 311.16L267.72 311.16L267.72 328.12Q267.72 330.04 268.67 331.16Q269.61 332.28 271.56 332.28Q273.48 332.28 274.44 331.16Q275.40 330.04 275.40 328.12L275.40 311.16L278.28 311.16L278.28 328.12Q278.28 331.26 276.57 333.05Q274.86 334.84 271.56 334.84" fill="white" fill-opacity="0.9"/>
<path d="M286.83 334.52L284.04 334.52L284.04 311.16L287.88 311.16L295.02 331.16Q294.95 330.36 294.87 329.19Q294.79 328.02 294.75 326.73Q294.70 325.43 294.70 324.28L294.70 311.16L297.48 311.16L297.48 334.52L293.64 334.52L286.54 314.52Q286.60 315.29 286.67 316.46Q286.73 317.62 286.78 318.92Q286.83 320.22 286.83 321.40" fill="white" fill-opacity="0.9"/>
<path d="M316.20 334.52L303.72 334.52L303.72 331.90L308.49 331.90L308.49 313.78L303.72 313.78L303.72 311.16L316.20 311.16L316.20 313.78L311.43 313.78L311.43 331.90L316.20 331.90" fill="white" fill-opacity="0.9"/>
<path d="M330.60 334.52L327.72 334.52L327.72 313.78L321.32 313.78L321.32 311.16L337 311.16L337 313.78L330.60 313.78" fill="white" fill-opacity="0.9"/>
<path d="M349.80 334.52L346.92 334.52L346.92 325.78L339.88 311.16L342.95 311.16L347.50 320.76Q347.88 321.56 348.11 322.12Q348.33 322.68 348.39 322.94Q348.46 322.68 348.70 322.12Q348.94 321.56 349.32 320.76L353.87 311.16L356.84 311.16L349.80 325.78" fill="white" fill-opacity="0.9"/>
<path d="M382.83 334.52L380.04 334.52L380.04 311.16L383.88 311.16L391.02 331.16Q390.95 330.36 390.87 329.19Q390.79 328.02 390.75 326.73Q390.70 325.43 390.70 324.28L390.70 311.16L393.48 311.16L393.48 334.52L389.64 334.52L382.54 314.52Q382.60 315.29 382.67 316.46Q382.73 317.62 382.78 318.92Q382.83 320.22 382.83 321.40" fill="white" fill-opacity="0.9"/>
<path d="M405.96 334.84Q402.83 334.84 401 333.02Q399.18 331.19 399.18 327.80L399.18 317.88Q399.18 314.49 401 312.66Q402.83 310.84 405.96 310.84Q409.10 310.84 410.92 312.66Q412.75 314.49 412.75 317.85L412.75 327.80Q412.75 331.19 410.92 333.02Q409.10 334.84 405.96 334.84M405.96 332.25Q407.85 332.25 408.86 331.18Q409.87 330.10 409.87 328.12L409.87 317.56Q409.87 315.58 408.86 314.50Q407.85 313.43 405.96 313.43Q404.11 313.43 403.08 314.50Q402.06 315.58 402.06 317.56L402.06 328.12Q402.06 330.10 403.08 331.18Q404.11 332.25 405.96 332.25" fill="white" fill-opacity="0.9"/>
<path d="M424.55 334.52L418.51 334.52L418.51 311.16L424.55 311.16Q426.83 311.16 428.47 312.02Q430.12 312.89 431.03 314.46Q431.95 316.02 431.95 318.17L431.95 327.48Q431.95 329.62 431.03 331.21Q430.12 332.79 428.47 333.66Q426.83 334.52 424.55 334.52M421.39 313.72L421.39 331.96L424.55 331.96Q426.67 331.96 427.87 330.78Q429.07 329.59 429.07 327.48L429.07 318.17Q429.07 316.09 427.87 314.90Q426.67 313.72 424.55 313.72" fill="white" fill-opacity="0.9"/>
<path d="M451.40 334.52L437.96 334.52L437.96 311.16L451.40 311.16L451.40 313.78L440.81 313.78L440.81 321.02L450.28 321.02L450.28 323.58L440.81 323.58L440.81 331.90L451.40 331.90" fill="white" fill-opacity="0.9"/>
<path d="M463.69 334.84Q460.30 334.84 458.28 333.05Q456.27 331.26 456.27 328.12L459.15 328.12Q459.15 330.07 460.39 331.18Q461.64 332.28 463.69 332.28Q465.67 332.28 466.86 331.13Q468.04 329.98 468.04 328.12Q468.04 326.71 467.29 325.67Q466.54 324.63 465.13 324.25L461.58 323.26Q459.37 322.62 458.11 320.97Q456.84 319.32 456.84 317.08Q456.84 315.22 457.67 313.82Q458.51 312.41 460.01 311.62Q461.51 310.84 463.47 310.84Q465.45 310.84 466.97 311.62Q468.49 312.41 469.35 313.80Q470.22 315.19 470.22 317.02L467.34 317.02Q467.34 315.42 466.25 314.41Q465.16 313.40 463.47 313.40Q461.77 313.40 460.71 314.41Q459.66 315.42 459.66 317.02Q459.66 318.30 460.35 319.21Q461.03 320.12 462.28 320.47L465.93 321.50Q468.27 322.14 469.56 323.91Q470.86 325.69 470.86 328.12Q470.86 331.19 468.91 333.02Q466.95 334.84 463.69 334.84" fill="white" fill-opacity="0.9"/>
</g>
<path d="M74.37 197.64L72.21 197.64L72.21 180.12L74.37 180.12L74.37 187.66L76.96 187.66L80.85 180.12L83.20 180.12L78.86 188.57L83.44 197.64L80.97 197.64L76.89 189.55L74.37 189.55" fill="white" fill-opacity="0.7"/>
<path d="M91.60 197.88Q89.27 197.88 87.84 196.48Q86.42 195.07 86.42 192.60L86.42 189.48Q86.42 187.01 87.84 185.60Q89.27 184.20 91.60 184.20Q93.16 184.20 94.32 184.82Q95.49 185.45 96.14 186.58Q96.78 187.70 96.78 189.24L96.78 191.59L88.53 191.59L88.53 192.84Q88.53 194.30 89.37 195.16Q90.21 196.01 91.60 196.01Q92.80 196.01 93.58 195.54Q94.36 195.07 94.53 194.28L96.69 194.28Q96.47 195.94 95.08 196.91Q93.69 197.88 91.60 197.88M88.53 189.24L88.53 189.91L94.67 189.91L94.67 189.24Q94.67 187.68 93.87 186.83Q93.06 185.98 91.60 185.98Q90.14 185.98 89.33 186.83Q88.53 187.68 88.53 189.24" fill="white" fill-opacity="0.7"/>
<path d="M103.65 197.64L101.49 197.64L101.49 184.44L103.65 184.44L103.65 186.96L103.70 186.96Q103.86 185.69 104.78 184.94Q105.69 184.20 107.22 184.20Q109.29 184.20 110.40 185.44Q111.52 186.67 111.52 188.95L111.52 190.08L109.36 190.08L109.36 188.95Q109.36 186.07 106.55 186.07Q105.14 186.07 104.39 186.89Q103.65 187.70 103.65 189.24" fill="white" fill-opacity="0.7"/>
<path d="M119.25 197.88Q117.21 197.88 116.01 196.74Q114.81 195.60 114.81 193.75Q114.81 192.53 115.36 191.62Q115.91 190.70 116.90 190.19Q117.88 189.67 119.15 189.67L123.23 189.67L123.23 188.64Q123.23 186.07 120.42 186.07Q119.18 186.07 118.41 186.53Q117.64 186.98 117.59 187.80L115.43 187.80Q115.55 186.24 116.88 185.22Q118.22 184.20 120.42 184.20Q122.82 184.20 124.11 185.35Q125.39 186.50 125.39 188.57L125.39 197.64L123.26 197.64L123.26 195.24L123.21 195.24Q123.02 196.46 121.98 197.17Q120.95 197.88 119.25 197.88M119.78 196.06Q121.36 196.06 122.30 195.29Q123.23 194.52 123.23 193.20L123.23 191.35L119.39 191.35Q118.34 191.35 117.68 191.99Q117.02 192.62 117.02 193.68Q117.02 194.78 117.75 195.42Q118.48 196.06 119.78 196.06" fill="white" fill-opacity="0.7"/>
<path d="M140.80 197.64L136.72 197.64Q134.97 197.64 133.92 196.62Q132.88 195.60 132.88 193.92L132.88 182.09L128.32 182.09L128.32 180.12L135.04 180.12L135.04 193.92Q135.04 194.74 135.50 195.20Q135.95 195.67 136.72 195.67L140.80 195.67" fill="white" fill-opacity="0.7"/>
<path d="M148.05 197.88Q146.01 197.88 144.81 196.74Q143.61 195.60 143.61 193.75Q143.61 192.53 144.16 191.62Q144.71 190.70 145.70 190.19Q146.68 189.67 147.95 189.67L152.03 189.67L152.03 188.64Q152.03 186.07 149.22 186.07Q147.98 186.07 147.21 186.53Q146.44 186.98 146.39 187.80L144.23 187.80Q144.35 186.24 145.68 185.22Q147.02 184.20 149.22 184.20Q151.62 184.20 152.91 185.35Q154.19 186.50 154.19 188.57L154.19 197.64L152.06 197.64L152.06 195.24L152.01 195.24Q151.82 196.46 150.78 197.17Q149.75 197.88 148.05 197.88M148.58 196.06Q150.16 196.06 151.10 195.29Q152.03 194.52 152.03 193.20L152.03 191.35L148.19 191.35Q147.14 191.35 146.48 191.99Q145.82 192.62 145.82 193.68Q145.82 194.78 146.55 195.42Q147.28 196.06 148.58 196.06" fill="white" fill-opacity="0.7"/>
<path d="M179.46 197.64L176.51 197.64LNaN 180.12L174.21 180.12L177.21 192.05Q177.52 193.30 177.72 194.35Q177.93 195.41 178.02 195.96Q178.12 195.41 178.35 194.34Q178.58 193.27 178.89 192.02L181.77 180.12LNaN 180.12" fill="white" fill-opacity="0.7"/>
<path d="M189.59 197.64L187.43 197.64L187.43 180.12L189.59 180.12L189.59 187.61L195.21 187.61L195.21 180.12L197.37 180.12L197.37 197.64L195.21 197.64L195.21 189.58L189.59 189.58" fill="white" fill-opacity="0.7"/>
<path d="M206.90 197.88Q204.35 197.88 202.84 196.54Q201.33 195.19 201.33 192.84L203.49 192.84Q203.49 194.30 204.42 195.13Q205.36 195.96 206.90 195.96Q208.38 195.96 209.27 195.10Q210.16 194.23 210.16 192.84Q210.16 191.78 209.60 191Q209.03 190.22 207.98 189.94L205.31 189.19Q203.66 188.71 202.71 187.48Q201.76 186.24 201.76 184.56Q201.76 183.17 202.38 182.11Q203.01 181.06 204.14 180.47Q205.26 179.88 206.73 179.88Q208.22 179.88 209.36 180.47Q210.50 181.06 211.14 182.10Q211.79 183.14 211.79 184.51L209.63 184.51Q209.63 183.31 208.82 182.56QNaN 181.80 206.73 181.80Q205.46 181.80 204.66 182.56Q203.87 183.31 203.87 184.51Q203.87 185.47 204.39 186.16Q204.90 186.84 205.84 187.10L208.58 187.87Q210.33 188.35 211.30 189.68Q212.27 191.02 212.27 192.84Q212.27 195.14 210.81 196.51Q209.34 197.88 206.90 197.88" fill="white" fill-opacity="0.7"/>
<path d="M226.48 197.64L216.40 197.64L216.40 180.12L226.48 180.12L226.48 182.09L218.54 182.09L218.54 187.51L225.64 187.51L225.64 189.43L218.54 189.43L218.54 195.67L226.48 195.67" fill="white" fill-opacity="0.7"/>
<path d="M246.62 197.64L244.53 197.64L244.53 180.12L247.72 180.12L249.95 187.70L252.28 180.12L255.47 180.12L255.47 197.64L253.38 197.64L253.38 189.36Q253.38 188.18 253.42 186.66Q253.46 185.14 253.53 183.58Q253.60 182.02 253.70 180.77L250.86 189.82L248.99 189.82L246.28 180.98Q246.47 182.76 246.54 184.87Q246.62 186.98 246.62 189.36" fill="white" fill-opacity="0.7"/>
<path d="M263.25 197.88Q261.21 197.88 260.01 196.74Q258.81 195.60 258.81 193.75Q258.81 192.53 259.36 191.62Q259.91 190.70 260.90 190.19Q261.88 189.67 263.15 189.67L267.23 189.67L267.23 188.64Q267.23 186.07 264.42 186.07Q263.18 186.07 262.41 186.53Q261.64 186.98 261.59 187.80L259.43 187.80Q259.55 186.24 260.88 185.22Q262.22 184.20 264.42 184.20Q266.82 184.20 268.11 185.35Q269.39 186.50 269.39 188.57L269.39 197.64L267.26 197.64L267.26 195.24L267.21 195.24Q267.02 196.46 265.98 197.17Q264.95 197.88 263.25 197.88M263.78 196.06Q265.36 196.06 266.30 195.29Q267.23 194.52 267.23 193.20L267.23 191.35L263.39 191.35Q262.34 191.35 261.68 191.99Q261.02 192.62 261.02 193.68Q261.02 194.78 261.75 195.42Q262.48 196.06 263.78 196.06" fill="white" fill-opacity="0.7"/>
<path d="M276.45 197.64L274.29 197.64L274.29 184.44L276.45 184.44L276.45 186.96L276.50 186.96Q276.66 185.69 277.58 184.94Q278.49 184.20 280.02 184.20Q282.09 184.20 283.20 185.44Q284.32 186.67 284.32 188.95L284.32 190.08L282.16 190.08L282.16 188.95Q282.16 186.07 279.35 186.07Q277.94 186.07 277.19 186.89Q276.45 187.70 276.45 189.24" fill="white" fill-opacity="0.7"/>
<path d="M293.39 197.88Q290.99 197.88 289.55 196.54Q288.11 195.19 288.11 192.84L288.11 189.24Q288.11 186.89 289.55 185.54Q290.99 184.20 293.39 184.20Q295.67 184.20 297.08 185.42Q298.48 186.65 298.55 188.76L296.39 188.76Q296.32 187.49 295.53 186.80Q294.74 186.12 293.39 186.12Q291.98 186.12 291.12 186.92Q290.27 187.73 290.27 189.22L290.27 192.84Q290.27 194.33 291.12 195.14Q291.98 195.96 293.39 195.96Q294.74 195.96 295.53 195.26Q296.32 194.57 296.39 193.32L298.55 193.32Q298.48 195.43 297.08 196.66Q295.67 197.88 293.39 197.88" fill="white" fill-opacity="0.7"/>
<path d="M304.77 197.64L302.61 197.64L302.61 180.12L304.77 180.12L304.77 186.96L304.79 186.96Q304.96 185.64 305.87 184.92Q306.78 184.20 308.30 184.20Q310.29 184.20 311.46 185.42Q312.64 186.65 312.64 188.76L312.64 197.64L310.48 197.64L310.48 189.12Q310.48 187.63 309.72 186.83Q308.97 186.02 307.67 186.02Q306.33 186.02 305.55 186.86Q304.77 187.70 304.77 189.24" fill="white" fill-opacity="0.7"/>
<path d="M341.85 197.64L331.26 197.64L331.26 195.65L337.10 189.41Q338.37 188.06 338.90 187.01Q339.42 185.95 339.42 184.94Q339.42 183.50 338.60 182.65Q337.77 181.80 336.35 181.80Q334.89 181.80 334.04 182.68Q333.18 183.55 333.18 185.04L331.02 185.04Q331.10 182.66 332.54 181.27Q333.98 179.88 336.35 179.88Q338.78 179.88 340.20 181.25Q341.63 182.62 341.63 184.97Q341.63 186.22 340.95 187.61Q340.26 189 338.61 190.73L333.88 195.67L341.85 195.67" fill="white" fill-opacity="0.7"/>
<path d="M350.80 197.88Q348.38 197.88 346.95 196.48Q345.52 195.07 345.52 192.72L345.52 185.04Q345.52 182.69 346.95 181.28Q348.38 179.88 350.80 179.88Q353.22 179.88 354.65 181.28Q356.08 182.69 356.08 185.04L356.08 192.72Q356.08 194.28 355.43 195.44Q354.78 196.61 353.60 197.24Q352.41 197.88 350.80 197.88M350.80 196.03Q352.24 196.03 353.12 195.11Q353.99 194.18 353.99 192.72L353.99 185.04Q353.99 183.58 353.12 182.65Q352.24 181.73 350.80 181.73Q349.36 181.73 348.48 182.65Q347.61 183.58 347.61 185.04L347.61 192.72Q347.61 194.18 348.48 195.11Q349.36 196.03 350.80 196.03M350.80 190.20Q350.15 190.20 349.76 189.84Q349.36 189.48 349.36 188.81Q349.36 188.16 349.76 187.81Q350.15 187.46 350.80 187.46Q351.45 187.46 351.84 187.81Q352.24 188.16 352.24 188.81Q352.24 189.48 351.84 189.84Q351.45 190.20 350.80 190.20" fill="white" fill-opacity="0.7"/>
<path d="M370.65 197.64L360.06 197.64L360.06 195.65L365.90 189.41Q367.17 188.06 367.70 187.01Q368.22 185.95 368.22 184.94Q368.22 183.50 367.40 182.65Q366.57 181.80 365.15 181.80Q363.69 181.80 362.84 182.68Q361.98 183.55 361.98 185.04L359.82 185.04Q359.90 182.66 361.34 181.27Q362.78 179.88 365.15 179.88Q367.58 179.88 369 181.25Q370.43 182.62 370.43 184.97Q370.43 186.22 369.75 187.61Q369.06 189 367.41 190.73L362.68 195.67L370.65 195.67" fill="white" fill-opacity="0.7"/>
<path d="M379.60 197.88Q377.18 197.88 375.75 196.48Q374.32 195.07 374.32 192.72L374.32 185.04Q374.32 182.69 375.75 181.28Q377.18 179.88 379.60 179.88Q382.02 179.88 383.45 181.28Q384.88 182.69 384.88 185.04L384.88 192.72Q384.88 194.28 384.23 195.44Q383.58 196.61 382.40 197.24Q381.21 197.88 379.60 197.88M379.60 196.03Q381.04 196.03 381.92 195.11Q382.79 194.18 382.79 192.72L382.79 185.04Q382.79 183.58 381.92 182.65Q381.04 181.73 379.60 181.73Q378.16 181.73 377.28 182.65Q376.41 183.58 376.41 185.04L376.41 192.72Q376.41 194.18 377.28 195.11Q378.16 196.03 379.60 196.03M379.60 190.20Q378.95 190.20 378.56 189.84Q378.16 189.48 378.16 188.81Q378.16 188.16 378.56 187.81Q378.95 187.46 379.60 187.46Q380.25 187.46 380.64 187.81Q381.04 188.16 381.04 188.81Q381.04 189.48 380.64 189.84Q380.25 190.20 379.60 190.20" fill="white" fill-opacity="0.7"/>
<path d="M404.66 197.64L402.64 197.64L402.64 184.44L404.51 184.44L404.51 186.19L404.56 186.19Q404.68 185.30 405.27 184.75Q405.86 184.20 406.77 184.20Q407.63 184.20 408.23 184.70Q408.83 185.21 409.10 186.07L409.12 186.07Q409.29 185.21 409.88 184.70Q410.46 184.20 411.38 184.20Q412.65 184.20 413.40 185.15Q414.16 186.10 414.16 187.61L414.16 197.64L412.14 197.64L412.14 187.58Q412.14 186.79 411.76 186.32Q411.38 185.86 410.70 185.86Q410.06 185.86 409.67 186.31Q409.29 186.77 409.29 187.56L409.29 197.64L407.51 197.64L407.51 187.58Q407.51 186.79 407.13 186.32Q406.74 185.86 406.10 185.86Q405.42 185.86 405.04 186.31Q404.66 186.77 404.66 187.56" fill="white" fill-opacity="0.7"/>
<path d="M421.65 197.88Q419.61 197.88 418.41 196.74Q417.21 195.60 417.21 193.75Q417.21 192.53 417.76 191.62Q418.31 190.70 419.30 190.19Q420.28 189.67 421.55 189.67L425.63 189.67L425.63 188.64Q425.63 186.07 422.82 186.07Q421.58 186.07 420.81 186.53Q420.04 186.98 419.99 187.80L417.83 187.80Q417.95 186.24 419.28 185.22Q420.62 184.20 422.82 184.20Q425.22 184.20 426.51 185.35Q427.79 186.50 427.79 188.57L427.79 197.64L425.66 197.64L425.66 195.24L425.61 195.24Q425.42 196.46 424.38 197.17Q423.35 197.88 421.65 197.88M422.18 196.06Q423.76 196.06 424.70 195.29Q425.63 194.52 425.63 193.20L425.63 191.35L421.79 191.35Q420.74 191.35 420.08 191.99Q419.42 192.62 419.42 193.68Q419.42 194.78 420.15 195.42Q420.88 196.06 422.18 196.06" fill="white" fill-opacity="0.7"/>
<path d="M434.85 197.64L432.69 197.64L432.69 184.44L434.85 184.44L434.85 186.96L434.90 186.96Q435.06 185.69 435.98 184.94Q436.89 184.20 438.42 184.20Q440.49 184.20 441.60 185.44Q442.72 186.67 442.72 188.95L442.72 190.08L440.56 190.08L440.56 188.95Q440.56 186.07 437.75 186.07Q436.34 186.07 435.59 186.89Q434.85 187.70 434.85 189.24" fill="white" fill-opacity="0.7"/>
<path d="M448.89 197.64L446.73 197.64L446.73 180.12L448.89 180.12L448.89 189.89L451.41 189.89L455.10 184.44L457.58 184.44L453.33 190.73L457.82 197.64L455.30 197.64L451.46 191.76L448.89 191.76" fill="white" fill-opacity="0.7"/>
<path d="M472 197.64L467.92 197.64Q466.17 197.64 465.12 196.62Q464.08 195.60 464.08 193.92L464.08 182.09L459.52 182.09L459.52 180.12L466.24 180.12L466.24 193.92Q466.24 194.74 466.70 195.20Q467.15 195.67 467.92 195.67L472 195.67" fill="white" fill-opacity="0.7"/>
<path d="M486.52 197.64L475.24 197.64L475.24 195.67L479.92 195.67L479.92 186.41L475.72 186.41L475.72 184.44L482.08 184.44L482.08 195.67L486.52 195.67L486.52 197.64M480.76 182.06Q479.97 182.06 479.51 181.66Q479.06 181.25 479.06 180.55Q479.06 179.83 479.51 179.41Q479.97 178.99 480.76 178.99Q481.55 178.99 482.01 179.41Q482.46 179.83 482.46 180.55Q482.46 181.25 482.01 181.66Q481.55 182.06 480.76 182.06" fill="white" fill-opacity="0.7"/>
<path d="M495.33 197.83L494.27 197.83Q492.06 197.83 490.85 196.84Q489.64 195.84 489.64 194.02L491.80 194.02Q491.80 194.93 492.45 195.44Q493.10 195.96 494.27 195.96L495.33 195.96Q496.53 195.96 497.19 195.43Q497.85 194.90 497.85 193.94Q497.85 192.24 496.29 192.02L492.64 191.50Q491.30 191.30 490.55 190.38Q489.81 189.46 489.81 187.94Q489.81 186.22 491 185.23Q492.18 184.25 494.27 184.25L495.33 184.25Q497.25 184.25 498.46 185.20Q499.67 186.14 499.77 187.68L497.58 187.68Q497.54 186.98 496.92 186.53Q496.31 186.07 495.33 186.07L494.27 186.07Q493.17 186.07 492.54 186.58Q491.92 187.08 491.92 187.94Q491.92 189.34 493.19 189.53L496.60 190.01Q499.96 190.49 499.96 193.94Q499.96 195.79 498.75 196.81Q497.54 197.83 495.33 197.83" fill="white" fill-opacity="0.7"/>
<path d="M514.36 197.64L510.52 197.64Q508.89 197.64 507.90 196.69Q506.92 195.74 506.92 194.16L506.92 186.41L503.13 186.41L503.13 184.44L506.92 184.44L506.92 180.72L509.08 180.72L509.08 184.44L514.48 184.44L514.48 186.41L509.08 186.41L509.08 194.16Q509.08 194.83 509.48 195.25Q509.87 195.67 510.52 195.67L514.36 195.67" fill="white" fill-opacity="0.7"/>
<path d="M536.85 197.88Q534.81 197.88 533.61 196.74Q532.41 195.60 532.41 193.75Q532.41 192.53 532.96 191.62Q533.51 190.70 534.50 190.19Q535.48 189.67 536.75 189.67L540.83 189.67L540.83 188.64Q540.83 186.07 538.02 186.07Q536.78 186.07 536.01 186.53Q535.24 186.98 535.19 187.80L533.03 187.80Q533.15 186.24 534.48 185.22Q535.82 184.20 538.02 184.20Q540.42 184.20 541.71 185.35Q542.99 186.50 542.99 188.57L542.99 197.64L540.86 197.64L540.86 195.24L540.81 195.24Q540.62 196.46 539.58 197.17Q538.55 197.88 536.85 197.88M537.38 196.06Q538.96 196.06 539.90 195.29Q540.83 194.52 540.83 193.20L540.83 191.35L536.99 191.35Q535.94 191.35 535.28 191.99Q534.62 192.62 534.62 193.68Q534.62 194.78 535.35 195.42Q536.08 196.06 537.38 196.06" fill="white" fill-opacity="0.7"/>
<path d="M553.82 197.64L550.98 197.64L546.50 184.44L548.82 184.44L551.70 193.32Q551.97 194.11 552.16 194.84Q552.35 195.58 552.45 195.98Q552.57 195.58 552.74 194.84Q552.90 194.11 553.14 193.32L556.02 184.44L558.30 184.44" fill="white" fill-opacity="0.7"/>
<path d="M565.65 197.88Q563.61 197.88 562.41 196.74Q561.21 195.60 561.21 193.75Q561.21 192.53 561.76 191.62Q562.31 190.70 563.30 190.19Q564.28 189.67 565.55 189.67L569.63 189.67L569.63 188.64Q569.63 186.07 566.82 186.07Q565.58 186.07 564.81 186.53Q564.04 186.98 563.99 187.80L561.83 187.80Q561.95 186.24 563.28 185.22Q564.62 184.20 566.82 184.20Q569.22 184.20 570.51 185.35Q571.79 186.50 571.79 188.57L571.79 197.64L569.66 197.64L569.66 195.24L569.61 195.24Q569.42 196.46 568.38 197.17Q567.35 197.88 565.65 197.88M566.18 196.06Q567.76 196.06 568.70 195.29Q569.63 194.52 569.63 193.20L569.63 191.35L565.79 191.35Q564.74 191.35 564.08 191.99Q563.42 192.62 563.42 193.68Q563.42 194.78 564.15 195.42Q564.88 196.06 566.18 196.06" fill="white" fill-opacity="0.7"/>
<path d="M587.32 197.64L576.04 197.64L576.04 195.67L580.72 195.67L580.72 186.41L576.52 186.41L576.52 184.44L582.88 184.44L582.88 195.67L587.32 195.67L587.32 197.64M581.56 182.06Q580.77 182.06 580.31 181.66Q579.86 181.25 579.86 180.55Q579.86 179.83 580.31 179.41Q580.77 178.99 581.56 178.99Q582.35 178.99 582.81 179.41Q583.26 179.83 583.26 180.55Q583.26 181.25 582.81 181.66Q582.35 182.06 581.56 182.06" fill="white" fill-opacity="0.7"/>
<path d="M601.60 197.64L597.52 197.64Q595.77 197.64 594.72 196.62Q593.68 195.60 593.68 193.92L593.68 182.09L589.12 182.09L589.12 180.12L595.84 180.12L595.84 193.92Q595.84 194.74 596.30 195.20Q596.75 195.67 597.52 195.67L601.60 195.67" fill="white" fill-opacity="0.7"/>
<path d="M608.85 197.88Q606.81 197.88 605.61 196.74Q604.41 195.60 604.41 193.75Q604.41 192.53 604.96 191.62Q605.51 190.70 606.50 190.19Q607.48 189.67 608.75 189.67L612.83 189.67L612.83 188.64Q612.83 186.07 610.02 186.07Q608.78 186.07 608.01 186.53Q607.24 186.98 607.19 187.80L605.03 187.80Q605.15 186.24 606.48 185.22Q607.82 184.20 610.02 184.20Q612.42 184.20 613.71 185.35Q614.99 186.50 614.99 188.57L614.99 197.64L612.86 197.64L612.86 195.24L612.81 195.24Q612.62 196.46 611.58 197.17Q610.55 197.88 608.85 197.88M609.38 196.06Q610.96 196.06 611.90 195.29Q612.83 194.52 612.83 193.20L612.83 191.35L608.99 191.35Q607.94 191.35 607.28 191.99Q606.62 192.62 606.62 193.68Q606.62 194.78 607.35 195.42Q608.08 196.06 609.38 196.06" fill="white" fill-opacity="0.7"/>
<path d="M625.17 197.88Q623.68 197.88 622.72 197.15Q621.76 196.42 621.59 195.12L621.57 195.12L621.57 197.64L619.41 197.64L619.41 180.12L621.57 180.12L621.57 183.96L621.52 186.96L621.54 186.96Q621.74 185.69 622.71 184.94Q623.68 184.20 625.17 184.20Q627.16 184.20 628.34 185.52Q629.51 186.84 629.51 189.12L629.51 192.98Q629.51 195.24 628.34 196.56Q627.16 197.88 625.17 197.88M624.45 196.01Q625.82 196.01 626.58 195.29Q627.35 194.57 627.35 192.96L627.35 189.12Q627.35 187.49 626.58 186.78Q625.82 186.07 624.45 186.07Q623.13 186.07 622.35 186.91Q621.57 187.75 621.57 189.24L621.57 192.84Q621.57 194.33 622.35 195.17Q623.13 196.01 624.45 196.01" fill="white" fill-opacity="0.7"/>
<path d="M644.80 197.64L640.72 197.64Q638.97 197.64 637.92 196.62Q636.88 195.60 636.88 193.92L636.88 182.09L632.32 182.09L632.32 180.12L639.04 180.12L639.04 193.92Q639.04 194.74 639.50 195.20Q639.95 195.67 640.72 195.67L644.80 195.67" fill="white" fill-opacity="0.7"/>
<path d="M653.20 197.88Q650.87 197.88 649.44 196.48Q648.02 195.07 648.02 192.60L648.02 189.48Q648.02 187.01 649.44 185.60Q650.87 184.20 653.20 184.20Q654.76 184.20 655.92 184.82Q657.09 185.45 657.74 186.58Q658.38 187.70 658.38 189.24L658.38 191.59L650.13 191.59L650.13 192.84Q650.13 194.30 650.97 195.16Q651.81 196.01 653.20 196.01Q654.40 196.01 655.18 195.54Q655.96 195.07 656.13 194.28L658.29 194.28Q658.07 195.94 656.68 196.91Q655.29 197.88 653.20 197.88M650.13 189.24L650.13 189.91L656.27 189.91L656.27 189.24Q656.27 187.68 655.47 186.83Q654.66 185.98 653.20 185.98Q651.74 185.98 650.93 186.83Q650.13 187.68 650.13 189.24" fill="white" fill-opacity="0.7"/>
<path d="M682.12 197.64L679.96 197.64L679.96 188.21L676.12 188.21L676.12 186.24L679.96 186.24L679.96 183.48Q679.96 181.92 680.94 181.02Q681.93 180.12 683.66 180.12L687.52 180.12L687.52 182.09L683.66 182.09Q682.12 182.09 682.12 183.48L682.12 186.24L687.52 186.24L687.52 188.21L682.12 188.21" fill="white" fill-opacity="0.7"/>
<path d="M696.40 197.83Q694.02 197.83 692.62 196.44Q691.22 195.05 691.22 192.55L691.22 189.53Q691.22 187.01 692.61 185.63Q694 184.25 696.40 184.25Q698.80 184.25 700.19 185.63Q701.58 187.01 701.58 189.53L701.58 192.55Q701.58 195.05 700.18 196.44Q698.78 197.83 696.40 197.83M696.40 195.91Q697.82 195.91 698.62 195.12Q699.42 194.33 699.42 192.79L699.42 189.29Q699.42 187.75 698.62 186.96Q697.82 186.17 696.40 186.17Q695.01 186.17 694.19 186.96Q693.38 187.75 693.38 189.29L693.38 192.79Q693.38 194.33 694.19 195.12Q695.01 195.91 696.40 195.91" fill="white" fill-opacity="0.7"/>
<path d="M708.45 197.64L706.29 197.64L706.29 184.44L708.45 184.44L708.45 186.96L708.50 186.96Q708.66 185.69 709.58 184.94Q710.49 184.20 712.02 184.20Q714.09 184.20 715.20 185.44Q716.32 186.67 716.32 188.95L716.32 190.08L714.16 190.08L714.16 188.95Q714.16 186.07 711.35 186.07Q709.94 186.07 709.19 186.89Q708.45 187.70 708.45 189.24" fill="white" fill-opacity="0.7"/>
<path d="M740.13 197.83L739.07 197.83Q736.86 197.83 735.65 196.84Q734.44 195.84 734.44 194.02L736.60 194.02Q736.60 194.93 737.25 195.44Q737.90 195.96 739.07 195.96L740.13 195.96Q741.33 195.96 741.99 195.43Q742.65 194.90 742.65 193.94Q742.65 192.24 741.09 192.02L737.44 191.50Q736.10 191.30 735.35 190.38Q734.61 189.46 734.61 187.94Q734.61 186.22 735.80 185.23Q736.98 184.25 739.07 184.25L740.13 184.25Q742.05 184.25 743.26 185.20Q744.47 186.14 744.57 187.68L742.38 187.68Q742.34 186.98 741.72 186.53Q741.11 186.07 740.13 186.07L739.07 186.07Q737.97 186.07 737.34 186.58Q736.72 187.08 736.72 187.94Q736.72 189.34 737.99 189.53L741.40 190.01Q744.76 190.49 744.76 193.94Q744.76 195.79 743.55 196.81Q742.34 197.83 740.13 197.83" fill="white" fill-opacity="0.7"/>
<path d="M759.16 197.64L755.32 197.64Q753.69 197.64 752.70 196.69Q751.72 195.74 751.72 194.16L751.72 186.41L747.93 186.41L747.93 184.44L751.72 184.44L751.72 180.72L753.88 180.72L753.88 184.44L759.28 184.44L759.28 186.41L753.88 186.41L753.88 194.16Q753.88 194.83 754.28 195.25Q754.67 195.67 755.32 195.67L759.16 195.67" fill="white" fill-opacity="0.7"/>
<path d="M768.38 197.88Q766.10 197.88 764.73 196.52Q763.36 195.17 763.36 192.84L763.36 184.44L765.52 184.44L765.52 192.84Q765.52 194.28 766.29 195.13Q767.06 195.98 768.38 195.98Q769.72 195.98 770.50 195.13Q771.28 194.28 771.28 192.84L771.28 184.44L773.44 184.44L773.44 192.84Q773.44 195.17 772.05 196.52Q770.66 197.88 768.38 197.88" fill="white" fill-opacity="0.7"/>
<path d="M782.03 197.88Q780.06 197.88 778.88 196.56Q777.69 195.24 777.69 192.98L777.69 189.12Q777.69 186.84 778.86 185.52Q780.04 184.20 782.03 184.20Q783.52 184.20 784.49 184.94Q785.46 185.69 785.66 186.96L785.68 186.96L785.63 183.96L785.63 180.12L787.79 180.12L787.79 197.64L785.63 197.64L785.63 195.12L785.61 195.12Q785.44 196.42 784.48 197.15Q783.52 197.88 782.03 197.88M782.75 196.01Q784.10 196.01 784.86 195.17Q785.63 194.33 785.63 192.84L785.63 189.24Q785.63 187.75 784.86 186.91Q784.10 186.07 782.75 186.07Q781.38 186.07 780.62 186.78Q779.85 187.49 779.85 189.12L779.85 192.96Q779.85 194.57 780.62 195.29Q781.38 196.01 782.75 196.01" fill="white" fill-opacity="0.7"/>
<path d="M797.20 197.88Q794.87 197.88 793.44 196.48Q792.02 195.07 792.02 192.60L792.02 189.48Q792.02 187.01 793.44 185.60Q794.87 184.20 797.20 184.20Q798.76 184.20 799.92 184.82Q801.09 185.45 801.74 186.58Q802.38 187.70 802.38 189.24L802.38 191.59L794.13 191.59L794.13 192.84Q794.13 194.30 794.97 195.16Q795.81 196.01 797.20 196.01Q798.40 196.01 799.18 195.54Q799.96 195.07 800.13 194.28L802.29 194.28Q802.07 195.94 800.68 196.91Q799.29 197.88 797.20 197.88M794.13 189.24L794.13 189.91L800.27 189.91L800.27 189.24Q800.27 187.68 799.47 186.83Q798.66 185.98 797.20 185.98Q795.74 185.98 794.93 186.83Q794.13 187.68 794.13 189.24" fill="white" fill-opacity="0.7"/>
<path d="M808.77 197.64L806.61 197.64L806.61 184.44L808.77 184.44L808.77 186.96L808.79 186.96Q808.96 185.64 809.87 184.92Q810.78 184.20 812.30 184.20Q814.29 184.20 815.46 185.42Q816.64 186.65 816.64 188.76L816.64 197.64L814.48 197.64L814.48 189.14Q814.48 187.63 813.72 186.83Q812.97 186.02 811.67 186.02Q810.33 186.02 809.55 186.86Q808.77 187.70 808.77 189.24" fill="white" fill-opacity="0.7"/>
<path d="M831.16 197.64L827.32 197.64Q825.69 197.64 824.70 196.69Q823.72 195.74 823.72 194.16L823.72 186.41L819.93 186.41L819.93 184.44L823.72 184.44L823.72 180.72L825.88 180.72L825.88 184.44L831.28 184.44L831.28 186.41L825.88 186.41L825.88 194.16Q825.88 194.83 826.28 195.25Q826.67 195.67 827.32 195.67L831.16 195.67" fill="white" fill-opacity="0.7"/>
<path d="M854.03 197.88Q852.06 197.88 850.88 196.56Q849.69 195.24 849.69 192.98L849.69 189.12Q849.69 186.84 850.86 185.52Q852.04 184.20 854.03 184.20Q855.52 184.20 856.49 184.94Q857.46 185.69 857.66 186.96L857.68 186.96L857.63 183.96L857.63 180.12L859.79 180.12L859.79 197.64L857.63 197.64L857.63 195.12L857.61 195.12Q857.44 196.42 856.48 197.15Q855.52 197.88 854.03 197.88M854.75 196.01Q856.10 196.01 856.86 195.17Q857.63 194.33 857.63 192.84L857.63 189.24Q857.63 187.75 856.86 186.91Q856.10 186.07 854.75 186.07Q853.38 186.07 852.62 186.78Q851.85 187.49 851.85 189.12L851.85 192.96Q851.85 194.57 852.62 195.29Q853.38 196.01 854.75 196.01" fill="white" fill-opacity="0.7"/>
<path d="M869.20 197.83Q866.82 197.83 865.42 196.44Q864.02 195.05 864.02 192.55L864.02 189.53Q864.02 187.01 865.41 185.63Q866.80 184.25 869.20 184.25Q871.60 184.25 872.99 185.63Q874.38 187.01 874.38 189.53L874.38 192.55Q874.38 195.05 872.98 196.44Q871.58 197.83 869.20 197.83M869.20 195.91Q870.62 195.91 871.42 195.12Q872.22 194.33 872.22 192.79L872.22 189.29Q872.22 187.75 871.42 186.96Q870.62 186.17 869.20 186.17Q867.81 186.17 866.99 186.96Q866.18 187.75 866.18 189.29L866.18 192.79Q866.18 194.33 866.99 195.12Q867.81 195.91 869.20 195.91" fill="white" fill-opacity="0.7"/>
<path d="M881.68 197.64L879.30 197.64L877.14 184.44L879.02 184.44L880.36 193.75Q880.43 194.28 880.50 194.92Q880.58 195.55 880.60 195.96Q880.65 195.55 880.71 194.92Q880.77 194.28 880.86 193.75L882.52 184.44L884.68 184.44L886.34 193.75Q886.43 194.28 886.52 194.92Q886.60 195.55 886.62 195.96Q886.67 195.55 886.74 194.92Q886.82 194.28 886.89 193.75L888.28 184.44L890.06 184.44L887.80 197.64L885.42 197.64L883.91 188.52Q883.82 187.85 883.73 187.09Q883.65 186.34 883.60 185.93Q883.58 186.34 883.48 187.09Q883.38 187.85 883.26 188.52" fill="white" fill-opacity="0.7"/>
<path d="M895.17 197.64L893.01 197.64L893.01 184.44L895.17 184.44L895.17 186.96L895.19 186.96Q895.36 185.64 896.27 184.92Q897.18 184.20 898.70 184.20Q900.69 184.20 901.86 185.42Q903.04 186.65 903.04 188.76L903.04 197.64L900.88 197.64L900.88 189.14Q900.88 187.63 900.12 186.83Q899.37 186.02 898.07 186.02Q896.73 186.02 895.95 186.86Q895.17 187.70 895.17 189.24" fill="white" fill-opacity="0.7"/>
<path d="M918.40 197.64L914.32 197.64Q912.57 197.64 911.52 196.62Q910.48 195.60 910.48 193.92L910.48 182.09L905.92 182.09L905.92 180.12L912.64 180.12L912.64 193.92Q912.64 194.74 913.10 195.20Q913.55 195.67 914.32 195.67L918.40 195.67" fill="white" fill-opacity="0.7"/>
<path d="M926.80 197.83Q924.42 197.83 923.02 196.44Q921.62 195.05 921.62 192.55L921.62 189.53Q921.62 187.01 923.01 185.63Q924.40 184.25 926.80 184.25Q929.20 184.25 930.59 185.63Q931.98 187.01 931.98 189.53L931.98 192.55Q931.98 195.05 930.58 196.44Q929.18 197.83 926.80 197.83M926.80 195.91Q928.22 195.91 929.02 195.12Q929.82 194.33 929.82 192.79L929.82 189.29Q929.82 187.75 929.02 186.96Q928.22 186.17 926.80 186.17Q925.41 186.17 924.59 186.96Q923.78 187.75 923.78 189.29L923.78 192.79Q923.78 194.33 924.59 195.12Q925.41 195.91 926.80 195.91" fill="white" fill-opacity="0.7"/>
<path d="M940.05 197.88Q938.01 197.88 936.81 196.74Q935.61 195.60 935.61 193.75Q935.61 192.53 936.16 191.62Q936.71 190.70 937.70 190.19Q938.68 189.67 939.95 189.67L944.03 189.67L944.03 188.64Q944.03 186.07 941.22 186.07Q939.98 186.07 939.21 186.53Q938.44 186.98 938.39 187.80L936.23 187.80Q936.35 186.24 937.68 185.22Q939.02 184.20 941.22 184.20Q943.62 184.20 944.91 185.35Q946.19 186.50 946.19 188.57L946.19 197.64L944.06 197.64L944.06 195.24L944.01 195.24Q943.82 196.46 942.78 197.17Q941.75 197.88 940.05 197.88M940.58 196.06Q942.16 196.06 943.10 195.29Q944.03 194.52 944.03 193.20L944.03 191.35L940.19 191.35Q939.14 191.35 938.48 191.99Q937.82 192.62 937.82 193.68Q937.82 194.78 938.55 195.42Q939.28 196.06 940.58 196.06" fill="white" fill-opacity="0.7"/>
<path d="M954.83 197.88Q952.86 197.88 951.68 196.56Q950.49 195.24 950.49 192.98L950.49 189.12Q950.49 186.84 951.66 185.52Q952.84 184.20 954.83 184.20Q956.32 184.20 957.29 184.94Q958.26 185.69 958.46 186.96L958.48 186.96L958.43 183.96L958.43 180.12L960.59 180.12L960.59 197.64L958.43 197.64L958.43 195.12L958.41 195.12Q958.24 196.42 957.28 197.15Q956.32 197.88 954.83 197.88M955.55 196.01Q956.90 196.01 957.66 195.17Q958.43 194.33 958.43 192.84L958.43 189.24Q958.43 187.75 957.66 186.91Q956.90 186.07 955.55 186.07Q954.18 186.07 953.42 186.78Q952.65 187.49 952.65 189.12L952.65 192.96Q952.65 194.57 953.42 195.29Q954.18 196.01 955.55 196.01" fill="white" fill-opacity="0.7"/>
<path d="M970 197.88Q969.11 197.88 968.57 197.35Q968.03 196.82 968.03 195.98Q968.03 195.10 968.57 194.54Q969.11 193.99 970 193.99Q970.89 193.99 971.43 194.54Q971.97 195.10 971.97 195.98Q971.97 196.82 971.43 197.35Q970.89 197.88 970 197.88" fill="white" fill-opacity="0.7"/>
<path d="M76.11 136.06L66.42 136.06L84.56 65.98L97.14 65.98L115.18 136.06L105.49 136.06L101.07 117.82L80.53 117.82L76.11 136.06M87.54 88.92L82.45 109.95L99.15 109.95L94.16 89.02Q92.72 83.26 91.86 79.23Q90.99 75.20 90.80 73.76Q90.61 75.20 89.74 79.23Q88.88 83.26 87.54 88.92M137.55 136.06L128.05 136.06L128.05 65.98L150.80 65.98Q157.52 65.98 162.42 68.57Q167.31 71.16 170 75.82Q172.69 80.48 172.69 86.91Q172.69 93.24 170 97.90Q167.31 102.56 162.37 105.15Q157.42 107.74 150.80 107.74L137.55 107.74L137.55 136.06M137.55 74.43L137.55 99.29L150.80 99.29Q156.37 99.29 159.63 95.88Q162.90 92.48 162.90 86.91Q162.90 81.24 159.63 77.84Q156.37 74.43 150.80 74.43L137.55 74.43M225.10 136.06L186.90 136.06L186.90 127.42L201.20 127.42L201.20 74.62L186.90 74.62L186.90 65.98L225.10 65.98L225.10 74.62L210.80 74.62L210.80 127.42L225.10 127.42L225.10 136.06M263.98 137.02Q253.62 137.02 247.47 131.60Q241.33 126.17 241.33 116.67L250.83 116.67Q250.83 122.24 254.38 125.40Q257.94 128.57 263.98 128.57Q269.74 128.57 273.15 125.36Q276.56 122.14 276.56 116.76Q276.56 112.73 274.35 109.71Q272.14 106.68 268.11 105.63L257.74 102.84Q250.93 100.92 246.94 95.88Q242.96 90.84 242.96 83.93Q242.96 78.27 245.50 74Q248.05 69.72 252.66 67.37Q257.26 65.02 263.31 65.02Q269.46 65.02 274.11 67.37Q278.77 69.72 281.36 73.95Q283.95 78.17 283.95 83.74L274.54 83.74Q274.54 79.13 271.42 76.25Q268.30 73.37 263.31 73.37Q258.32 73.37 255.30 76.25Q252.27 79.13 252.27 83.74Q252.27 87.48 254.29 90.03Q256.30 92.57 259.95 93.63L270.61 96.51Q277.81 98.43 281.84 103.85Q285.87 109.28 285.87 116.76Q285.87 122.91 283.18 127.47Q280.50 132.03 275.55 134.52Q270.61 137.02 263.98 137.02M342.51 136.06L301.71 136.06L301.71 65.98L342.51 65.98L342.51 74.52L311.12 74.52L311.12 95.36L339.15 95.36L339.15 103.61L311.12 103.61L311.12 127.52L342.51 127.52L342.51 136.06M383.60 136.06L374.10 136.06L374.10 74.62L355.09 74.62L355.09 65.98L402.51 65.98L402.51 74.62L383.60 74.62L383.60 136.06M436.40 137.02Q426.51 137.02 421.18 131.55Q415.86 126.08 415.86 116.67L415.86 65.98L425.36 65.98L425.36 116.67Q425.36 122.24 428.10 125.40Q430.83 128.57 436.40 128.57Q441.87 128.57 444.70 125.40Q447.54 122.24 447.54 116.67L447.54 65.98L457.04 65.98L457.04 116.67Q457.04 126.17 451.71 131.60Q446.38 137.02 436.40 137.02M551.98 137.02Q542.29 137.02 536.58 131.60Q530.86 126.17 530.86 116.67L530.86 85.28Q530.86 75.87 536.58 70.44Q542.29 65.02 551.98 65.02Q561.58 65.02 567.30 70.49Q573.01 75.96 573.01 85.28L563.50 85.28Q563.50 79.61 560.43 76.54Q557.36 73.47 551.98 73.47Q546.51 73.47 543.44 76.54Q540.37 79.61 540.37 85.28L540.37 116.67Q540.37 122.43 543.44 125.50Q546.51 128.57 551.98 128.57Q557.36 128.57 560.43 125.50Q563.50 122.43 563.50 116.67L563.50 107.55L549.87 107.55L549.87 99.10L573.01 99.10L573.01 116.67Q573.01 126.08 567.30 131.55Q561.58 137.02 551.98 137.02M609.20 137.02Q599.60 137.02 594.03 131.45Q588.46 125.88 588.46 115.71L588.46 86.24Q588.46 76.16 594.03 70.59Q599.60 65.02 609.20 65.02Q618.80 65.02 624.37 70.54Q629.94 76.06 629.94 86.24L629.94 115.71Q629.94 125.88 624.37 131.45Q618.80 137.02 609.20 137.02M609.20 128.57Q614.58 128.57 617.50 125.50Q620.43 122.43 620.43 116.67L620.43 85.28Q620.43 79.61 617.55 76.54Q614.67 73.47 609.20 73.47Q603.73 73.47 600.85 76.54Q597.97 79.61 597.97 85.28L597.97 116.67Q597.97 122.43 600.90 125.50Q603.82 128.57 609.20 128.57M673.14 136.06L660.37 136.06L642.42 65.98L652.21 65.98L663.82 113.21Q664.98 117.72 665.79 121.90Q666.61 126.08 666.99 128.28Q667.28 126.08 668.19 121.85Q669.10 117.63 670.16 113.12L681.39 65.98L691.18 65.98L673.14 136.06M788.34 136.06L775.57 136.06L757.62 65.98L767.41 65.98L779.02 113.21Q780.18 117.72 780.99 121.90Q781.81 126.08 782.19 128.28Q782.48 126.08 783.39 121.85Q784.30 117.63 785.36 113.12L796.59 65.98L806.38 65.98L788.34 136.06M828.85 136.06L819.34 136.06L819.34 65.98L828.85 65.98L828.85 95.55L850.35 95.55L850.35 65.98L859.86 65.98L859.86 136.06L850.35 136.06L850.35 104.19L828.85 104.19L828.85 136.06M897.58 137.02Q887.22 137.02 881.07 131.60Q874.93 126.17 874.93 116.67L884.43 116.67Q884.43 122.24 887.98 125.40Q891.54 128.57 897.58 128.57Q903.34 128.57 906.75 125.36Q910.16 122.14 910.16 116.76Q910.16 112.73 907.95 109.71Q905.74 106.68 901.71 105.63L891.34 102.84Q884.53 100.92 880.54 95.88Q876.56 90.84 876.56 83.93Q876.56 78.27 879.10 74Q881.65 69.72 886.26 67.37Q890.86 65.02 896.91 65.02Q903.06 65.02 907.71 67.37Q912.37 69.72 914.96 73.95Q917.55 78.17 917.55 83.74L908.14 83.74Q908.14 79.13 905.02 76.25Q901.90 73.37 896.91 73.37Q891.92 73.37 888.90 76.25Q885.87 79.13 885.87 83.74Q885.87 87.48 887.89 90.03Q889.90 92.57 893.55 93.63L904.21 96.51Q911.41 98.43 915.44 103.85Q919.47 109.28 919.47 116.76Q919.47 122.91 916.78 127.47Q914.10 132.03 909.15 134.52Q904.21 137.02 897.58 137.02M976.11 136.06L935.31 136.06L935.31 65.98L976.11 65.98L976.11 74.52L944.72 74.52L944.72 95.36L972.75 95.36L972.75 103.61L944.72 103.61L944.72 127.52L976.11 127.52L976.11 136.06M1001.55 136.06L992.05 136.06L992.05 65.98L1001.55 65.98L1001.55 95.74L1011.34 95.74L1026.32 65.98L1036.69 65.98L1019.70 99.68L1037.55 136.06L1026.80 136.06L1011.15 104.09L1001.55 104.09L1001.55 136.06M1091.31 136.06L1050.51 136.06L1050.51 65.98L1091.31 65.98L1091.31 74.52L1059.92 74.52L1059.92 95.36L1087.95 95.36L1087.95 103.61L1059.92 103.61L1059.92 127.52L1091.31 127.52L1091.31 136.06M1116.75 136.06L1107.34 136.06L1107.34 65.98L1129.04 65.98Q1135.47 65.98 1140.27 68.52Q1145.07 71.07 1147.76 75.63Q1150.45 80.19 1150.45 86.33Q1150.45 93.44 1146.85 98.52Q1143.25 103.61 1137.30 105.72L1151.41 136.06L1140.94 136.06L1127.60 106.78L1116.75 106.78L1116.75 136.06M1116.75 74.43L1116.75 98.33L1129.04 98.33Q1134.42 98.33 1137.54 95.07Q1140.66 91.80 1140.66 86.43Q1140.66 80.96 1137.49 77.69Q1134.32 74.43 1129.04 74.43" fill="url(#paint2_linear_0_1)"/>
<g id="Group 1">
<rect id="Rectangle 1" x="26" y="168" width="12" height="184" rx="5" fill="url(#paint3_linear_0_1)" fill-opacity="0.9"/>
</g>
<g id="Group 1_2">
<rect id="Rectangle 2" x="26" y="38" width="12" height="119" rx="5" fill="url(#paint4_linear_0_1)" fill-opacity="0.9"/>
</g>
<ellipse id="Ellipse 1" cx="148.5" cy="573" rx="215.5" ry="214" fill="url(#paint5_linear_0_1)" fill-opacity="0.4"/>
<rect id="Rectangle 3" x="1229" y="48" width="300" height="300" rx="25" fill="#FFFBFB" fill-opacity="0.9"/>
<g id="placeholder-logo"><g transform="translate(1229,48) translate(0.0,60.0) scale(1.2000)"><g fill="#666666">
  <path d="m88.05,27.65c-3.15,4 -3.2,51.2 -0.05,54.35c2.75,2.75 71.7,3.15 74.45,0.45c2.85,-2.9 2.3,-53.85 -0.65,-55.9c-1.95,-1.35 -7.15,-1.55 -36.95,-1.55l-34.7,0l-2.1,2.65zm69.45,3.35c0.65,0 1,8.6 1,23.75l0,23.75l-33,0l-33,0l-0.25,-23c-0.15,-12.6 -0.1,-23.45 0.15,-24.1c0.35,-0.85 8.9,-1.05 32.25,-0.75c17.55,0.2 32.3,0.35 32.85,0.35z"/>
  <path d="m99.15,37.3c-6.85,7.35 4.25,17.35 11.4,10.25c1.35,-1.35 2.45,-3.65 2.45,-5.05c0,-6.45 -9.35,-9.95 -13.85,-5.2z"/>
  <path d="m135,42.5c-0.7,0.85 -5.25,5.15 -10.1,9.6l-8.85,8.1l-3.2,-3.2l-3.15,-3.15l-6.35,6.3c-5.55,5.5 -6.35,6.75 -6.35,10.05l0,3.8l28.5,0l28.5,0l0,-8.6l0,-8.55l-8.15,-7.7c-9.35,-8.85 -9.15,-8.7 -10.85,-6.65zm7.25,15.2c0.95,0.9 1.75,2.9 1.75,4.45c6.35,-5.05 4.75,-7.15 4.9,-11.55c0.95,0 0,0 0,0l-6.65,7.1z"/>
  <path d="m53.65,110.75c0.1,4.8 0.45,8.65 0.75,8.5c0.35,-0.15 1.3,-0.25 2.1,-0.25c1.1,0 1.5,-1.2 1.5,-4.75l0,-4.75l3.25,5c4.9,7.5 6.2,6.75 6.55,-3.75c0.25,-8.15 0.15,-8.75 -1.7,-8.75c-1.65,0 -2.05,0.8 -2.3,4.75l-0.3,4.75l-2.8,-4.75c-4.85,-8.25 -7.25,-6.9 -7.05,4z"/>
  <path d="m91,108.9c0,9.65 0.3,10.1 6.1,10.1c5.8,0 7.15,-2.65 1.65,-3.2l-3.25,-0.3l-0.3,-6.75c-0.25,-5.95 -0.55,-6.75 -2.25,-6.75c-1.75,0 -1.95,0.7 -1.95,6.9z"/>
  <path d="m151,102.45c0,0.25 1,2.15 2.25,4.2c1.2,2.1 2.45,5.8 2.75,8.25c0.65,5.9 4,6.95 4,1.25c0.05,-2.1 1.25,-5.85 2.95,-8.9l2.9,-5.25l-2.5,0c-1.8,0 -2.8,0.85 -3.75,3.1l-1.3,3.05l-1.25,-3.05c-1.1,-2.6 -6.05,-4.8 -6.05,-2.65z"/>
  <path d="m191,107.45c0,9.05 3.4,8.85 4.25,-0.2c0.45,-5 0.35,-5.25 -1.9,-5.25c-2.2,0 -2.35,0.4 -2.35,5.45z"/>
  <path d="m180.8,104.75c-1.3,5.35 0.65,13.6 3.45,14.35c2.3,0.6 2.75,0.4 2.75,-1.2c0,-1.05 -0.45,-1.9 -1,-1.9c-0.55,0 -1,-1.6 -1,-3.5c0,-1.95 0.45,-3.5 1,-3.5c0.55,0 1,-0.7 1,-1.5c0,-0.85 -0.45,-1.5 -1,-1.5c-0.55,0 -1,-0.7 -1,-1.5c0,-2.1 -3.65,-1.9 -4.2,0.25z"/>
  <path d="m71.55,106.55c-2.2,2.25 -2.05,9.7 0.3,11.8c4.5,4.1 10.15,0.75 10.15,-6.1c0,-4.85 -2,-7.25 -6,-7.25c-1.55,0 -3.55,0.7 -4.45,1.55zm6.25,5.8c0.25,3.05 0,3.65 -1.6,3.65c-2.3,0 -3.25,-2.65 -2.05,-5.85c1.25,-3.35 3.3,-2.1 3.65,2.2z"/>
  <path d="m105.75,106.1c-2.5,1.45 -2.45,9.95 0.1,12.25c4.3,3.9 10.15,0.35 10.15,-6.2c0,-6 -5.15,-9.05 -10.25,-6.05zm6.05,6.25c0.25,3.05 0,3.65 -1.6,3.65c-2.3,0 -3.25,-2.65 -2.05,-5.85c1.25,-3.35 3.3,-2.1 3.65,2.2z"/>
  <path d="m119.2,106.2c-3.8,3.8 -0.4,12.55 4.4,11.35c1.9,-0.45 2.45,-0.3 2.15,0.65c-0.25,0.7 -1.55,1.2 -2.85,1.1c-4.05,-0.3 -5.35,0.45 -3.85,2.25c0.85,1.05 2.6,1.45 5.35,1.25l4.1,-0.3l0.3,-8.75l0.3,-8.75l-4.35,0c-2.4,0 -4.9,0.55 -5.55,1.2zm6.6,4.45c0.4,2.85 -2.15,4.85 -3.75,2.95c-0.9,-1.1 -0.9,-2 -0.05,-3.6c1.35,-2.5 3.4,-2.15 3.8,0.65z"/>
  <path d="m133.55,106.55c-2.2,2.25 -2.05,9.7 0.3,11.8c4.5,4.1 10.15,0.75 10.15,-6.1c0,-4.85 -2,-7.25 -6,-7.25c-1.55,0 -3.55,0.7 -4.45,1.55zm6.25,5.8c0.25,3.05 0,3.65 -1.6,3.65c-2.3,0 -3.25,-2.65 -2.05,-5.85c1.25,-3.35 3.3,-2.1 3.65,2.2z"/>
  <path d="m167.65,106.85c-3.9,4.3 -0.75,13.15 4.7,13.15c2.4,0 5.65,-2.75 5.65,-4.85c0,-1.4 -2.65,-1.55 -3.5,-0.15c-0.95,1.55 -4.5,1.15 -4.5,-0.5c0,-1.1 1.1,-1.5 4,-1.5c3.15,0 4,-0.35 4,-1.8c0,-5.3 -6.85,-8.25 -10.35,-4.35z"/>
  <path d="m191,117.5c0,2.15 0.4,2.6 2.25,2.3c1.5,-0.2 2.25,-1 2.25,-2.3c0,-1.3 -0.75,-2.1 -2.25,-2.3c-1.85,-0.3 -2.25,0.15 -2.25,2.3z"/>
 </g></g></g>
</g>
<defs>
<linearGradient id="paint0_linear_0_1" x1="0" y1="198" x2="1584" y2="198" gradientUnits="userSpaceOnUse">
<stop stop-color="#3D052C"/>
<stop offset="1"/>
</linearGradient>
<linearGradient id="paint1_linear_0_1" x1="323" y1="-224" x2="323" y2="352" gradientUnits="userSpaceOnUse">
<stop stop-color="#28F6F2" stop-opacity="0.4"/>
<stop offset="1" stop-color="#17908E" stop-opacity="0.7"/>
</linearGradient>
<linearGradient id="paint2_linear_0_1" x1="148.5" y1="38" x2="148.5" y2="140" gradientUnits="userSpaceOnUse">
<stop stop-color="white"/>
<stop offset="1" stop-color="#999999"/>
</linearGradient>
<linearGradient id="paint3_linear_0_1" x1="38" y1="260" x2="26" y2="260" gradientUnits="userSpaceOnUse">
<stop stop-color="#D9D9D9"/>
<stop offset="1" stop-color="#737373"/>
</linearGradient>
<linearGradient id="paint4_linear_0_1" x1="38" y1="97.5" x2="26" y2="97.5" gradientUnits="userSpaceOnUse">
<stop stop-color="#D9D9D9"/>
<stop offset="1" stop-color="#737373"/>
</linearGradient>
<linearGradient id="paint5_linear_0_1" x1="27.5" y1="434.5" x2="148.5" y2="787" gradientUnits="userSpaceOnUse">
<stop stop-color="#2E21BC"/>
<stop offset="1" stop-color="#150F56"/>
</linearGradient>
<clipPath id="clip0_0_1">
<rect width="1584" height="396" fill="white"/>
</clipPath>
</defs>
</svg>
